<svg width="14" height="14" viewBox="0 0 14 14" fill="none" xmlns="http://www.w3.org/2000/svg">
<path d="M8.01139 7L13.1383 0.888672C13.2243 0.78711 13.152 0.632812 13.0192 0.632812H11.4606C11.3688 0.632812 11.2809 0.673828 11.2204 0.744141L6.99186 5.78516L2.76334 0.744141C2.70475 0.673828 2.61686 0.632812 2.52311 0.632812H0.964512C0.8317 0.632812 0.759434 0.78711 0.845371 0.888672L5.97232 7L0.845371 13.1113C0.826121 13.134 0.81377 13.1617 0.809787 13.1911C0.805803 13.2206 0.810353 13.2505 0.822897 13.2775C0.835442 13.3044 0.855453 13.3272 0.880555 13.3431C0.905657 13.359 0.934796 13.3674 0.964512 13.3672H2.52311C2.6149 13.3672 2.70279 13.3262 2.76334 13.2559L6.99186 8.21484L11.2204 13.2559C11.279 13.3262 11.3669 13.3672 11.4606 13.3672H13.0192C13.152 13.3672 13.2243 13.2129 13.1383 13.1113L8.01139 7Z" fill="white"/>
</svg>
